<svg xmlns="http://www.w3.org/2000/svg" xmlns:xlink="http://www.w3.org/1999/xlink" version="1.1" x="0px" y="0px" viewBox="0 0 100 125" style="enable-background:new 0 0 100 100;" xml:space="preserve"><g><path d="M84.89,46.59c0-1.74-1.33-3.15-2.97-3.15H18.09c-1.64,0-2.97,1.41-2.97,3.15v9.93l34.59-9.7c0.01-0.01,0.03,0,0.04,0   c0.09-0.02,0.17-0.01,0.25-0.01s0.17-0.01,0.25,0.01c0.01,0,0.03-0.01,0.04,0l34.59,9.7V46.59z"/><path d="M78.46,27.92c0-1.41-1.16-2.55-2.59-2.55H24.13c-1.43,0-2.59,1.14-2.59,2.55v13.34h56.91V27.92z M35.68,35.2   c0,1.21-1,2.19-2.24,2.19H28c-1.23,0-2.24-0.99-2.24-2.19v-4.18c0-1.22,1-2.21,2.24-2.21h5.44c1.23,0,2.24,0.99,2.24,2.21V35.2z    M48.53,35.2c0,1.21-1,2.19-2.24,2.19h-5.45c-1.22,0-2.23-0.99-2.23-2.19v-4.18c0-1.22,1-2.21,2.23-2.21h5.45   c1.23,0,2.24,0.99,2.24,2.21V35.2z M61.38,35.2c0,1.21-1,2.19-2.23,2.19H53.7c-1.23,0-2.24-0.99-2.24-2.19v-4.18   c0-1.22,1-2.21,2.24-2.21h5.45c1.22,0,2.23,0.99,2.23,2.21V35.2z M74.24,35.2c0,1.21-1,2.19-2.24,2.19h-5.44   c-1.23,0-2.24-0.99-2.24-2.19v-4.18c0-1.22,1-2.21,2.24-2.21H72c1.23,0,2.24,0.99,2.24,2.21V35.2z"/><path d="M27.97,35.2l5.48,0.02c0.02,0,0.03-0.01,0.03-0.02v-4.18L28,30.99L27.97,35.2z"/><path d="M66.52,35.2L72,35.22c0.02,0,0.03-0.01,0.03-0.02v-4.18l-5.48-0.03L66.52,35.2z"/><path d="M53.67,35.2l5.49,0.02c0.01,0,0.02-0.01,0.02-0.02v-4.18l-5.48-0.03L53.67,35.2z"/><path d="M40.82,35.2l5.48,0.02c0.01,0,0.03-0.01,0.03-0.02v-4.18l-5.49-0.03L40.82,35.2z"/><path d="M53.39,8.72c0-1.5-1.23-2.72-2.75-2.72h-1.28c-1.52,0-2.75,1.22-2.75,2.72v1.52h6.79V8.72z"/><path d="M71.39,21.14c0-4.79-3.95-8.69-8.81-8.69H37.42c-4.86,0-8.81,3.9-8.81,8.69v2.05h42.79V21.14z"/><path d="M10.91,63.06l6.01,29.09c0.07,0.25,0.18,0.5,0.32,0.74c0.14,0,0.29,0.02,0.44,0.02c2.47,0,4.77-1.21,6.03-3.14   c0.5-0.76,1.24-1.21,2.05-1.21s1.55,0.45,2.05,1.21c1.26,1.93,3.56,3.14,6.03,3.14s4.78-1.21,6.03-3.14   c0.5-0.76,1.24-1.21,2.06-1.21c0.8,0,1.55,0.45,2.05,1.21c1.06,1.64,2.89,2.75,4.92,3.05V49.29L13.07,59.35   C11.46,59.8,10.52,61.43,10.91,63.06z"/><path d="M86.94,59.35L51.1,49.29v43.53c2.04-0.3,3.87-1.41,4.92-3.05c0.5-0.76,1.24-1.21,2.05-1.21c0.82,0,1.56,0.45,2.06,1.21   c1.24,1.93,3.56,3.14,6.03,3.14c2.47,0,4.77-1.21,6.02-3.14c0.5-0.76,1.24-1.21,2.06-1.21c0.82,0,1.56,0.45,2.06,1.21   c1.24,1.93,3.55,3.14,6.02,3.14c0.15,0,0.3-0.02,0.44-0.02c0.14-0.25,0.26-0.5,0.32-0.77l6-29.02   C89.48,61.43,88.54,59.8,86.94,59.35z"/><path d="M90.58,90.95c-0.09-0.15-0.18-0.21-0.2-0.21c-0.01,0-0.09,0.05-0.19,0.21c-0.84,1.29-2.03,2.34-3.42,3.05H94   C92.62,93.28,91.42,92.24,90.58,90.95z"/><path d="M9.8,90.95c-0.1-0.15-0.18-0.21-0.2-0.21c-0.01,0-0.1,0.05-0.19,0.21C8.58,92.24,7.38,93.28,6,94h7.22   C11.83,93.28,10.64,92.24,9.8,90.95z"/><path d="M42.11,90.95c-0.09-0.15-0.18-0.21-0.2-0.21c-0.01,0-0.09,0.05-0.19,0.21c-0.84,1.29-2.03,2.34-3.42,3.05h7.22   C44.15,93.28,42.95,92.24,42.11,90.95z"/><path d="M25.96,90.95c-0.1-0.15-0.19-0.21-0.21-0.21c0,0-0.09,0.05-0.19,0.21c-0.84,1.29-2.03,2.34-3.42,3.05h7.23   C27.99,93.28,26.8,92.24,25.96,90.95z"/><path d="M74.43,90.95c-0.1-0.15-0.19-0.21-0.21-0.21c0,0-0.09,0.05-0.19,0.21c-0.84,1.29-2.03,2.34-3.42,3.05h7.23   C76.46,93.28,75.27,92.24,74.43,90.95z"/><path d="M58.27,90.95c-0.1-0.15-0.18-0.21-0.2-0.21c-0.01,0-0.1,0.05-0.19,0.21c-0.84,1.29-2.04,2.34-3.42,3.05h7.22   C60.3,93.28,59.11,92.24,58.27,90.95z"/></g><text x="0" y="115" fill="#000000" font-size="5px" font-weight="bold" font-family="'Helvetica Neue', Helvetica, Arial-Unicode, Arial, Sans-serif">Created by Olifernes Tejeros</text><text x="0" y="120" fill="#000000" font-size="5px" font-weight="bold" font-family="'Helvetica Neue', Helvetica, Arial-Unicode, Arial, Sans-serif">from the Noun Project</text></svg>